<?xml version="1.0" encoding="UTF-8"?>
<svg width="394px" height="390px" viewBox="0 0 394 390" version="1.1" xmlns="http://www.w3.org/2000/svg" xmlns:xlink="http://www.w3.org/1999/xlink">
    <!-- Generator: Sketch 55.2 (78181) - https://sketchapp.com -->
    <title>roundabout</title>
    <desc>Created with Sketch.</desc>
    <g id="Page-1" stroke="none" stroke-width="1" fill="none" fill-rule="evenodd">
        <g id="roundabout" transform="translate(-1.000000, 0.000000)" fill="#000000" fill-rule="nonzero">
            <path d="M16.77117,254.47308 C15.0949196,255.008937 13.2736213,254.848439 11.7169198,254.027684 C10.1602182,253.206929 8.9988144,251.794828 8.49393,250.10899 C-6.49946029,196.853023 1.20699867,139.767071 29.7851685,92.3931543 C58.3633383,45.0192375 105.266706,11.5787003 159.36878,0.00436 C160.79178,-0.29707 180.89783,15.13178 190.08229,22.25357 C192.678186,24.2387532 193.328599,27.8775499 191.58115,30.63908 C185.39984,40.5606 171.74998,62.22239 170.18134,62.58387 C134.070971,71.018223 102.928091,93.7431941 83.8789823,125.558733 C64.8298735,157.374273 59.5049069,195.557358 69.12257,231.37073 C70.0686666,234.617506 68.2595958,238.027681 65.04081,239.06502 L16.77117,254.47308 Z" id="Path"></path>
            <path d="M235.54644,5.17857 C235.920499,3.45897223 236.970138,1.96193563 238.459276,1.0241699 C239.948414,0.0864041633 241.752023,-0.213356255 243.46444,0.19231 C297.082146,13.8356512 342.666789,49.0526201 369.404714,97.4889963 C396.142639,145.925372 401.651313,203.265141 384.62396,255.90608 C384.17351,257.28914 360.75871,266.98708 349.99883,271.38015 C346.981684,272.635653 343.505217,271.379547 341.98738,268.48548 C336.48574,258.17154 324.55101,235.51948 325.02229,233.9803 C335.773112,198.490615 331.664143,160.157593 313.635621,127.752805 C295.607099,95.3480166 265.202045,71.6449177 229.37791,62.06738 C226.09307,61.2633401 224.044309,57.9915475 224.75535,54.68533 L235.54644,5.17857 Z" id="Path"></path>
            <path d="M340.67616,320.15131 C341.978353,321.335057 342.750008,322.992597 342.817564,324.751119 C342.885121,326.509641 342.242908,328.221498 341.03537,329.50166 C302.411039,369.114277 249.119933,390.983246 193.803845,389.920779 C138.487757,388.858313 86.0757305,364.959083 49.00102,323.8925 C48.02849,322.81086 51.33723,297.68408 52.91266,286.16921 C53.3339329,282.928534 56.1599864,280.545878 59.42524,280.67843 C71.10819,281.07084 96.69278,282.06108 97.79015,283.23882 C123.1497,310.294155 158.401554,325.902202 195.479185,326.491438 C232.556816,327.080675 268.286828,312.60067 294.49328,286.36482 C296.832024,283.922091 300.689857,283.783708 303.19761,286.05259 L340.67616,320.15131 Z" id="Path"></path>
        </g>
    </g>
</svg>