<?xml version="1.0" encoding="UTF-8"?>
<svg width="74px" height="74px" viewBox="0 0 74 74" version="1.1" xmlns="http://www.w3.org/2000/svg" xmlns:xlink="http://www.w3.org/1999/xlink">
    <!-- Generator: Sketch 55.2 (78181) - https://sketchapp.com -->
    <title>Group 11</title>
    <desc>Created with Sketch.</desc>
    <g id="Home" stroke="none" stroke-width="1" fill="none" fill-rule="evenodd">
        <g id="Desktop-HD" transform="translate(-409.000000, -135.000000)">
            <g id="Group-11" transform="translate(409.000000, 135.000000)">
                <path d="M73.3135,36.8122358 C73.3135,56.9718769 56.9718769,73.3135 36.8122358,73.3135 C16.6551231,73.3135 0.3135,56.9718769 0.3135,36.8122358 C0.3135,16.6551231 16.6551231,0.3135 36.8122358,0.3135 C56.9718769,0.3135 73.3135,16.6551231 73.3135,36.8122358 Z" id="Shape-path" fill="#FFFFFF"></path>
                <path d="M51.3135,43.8256206 C51.3135,42.4895454 50.9972269,41.2805967 50.3646808,40.1937892 C49.7321346,39.1019963 48.8704772,38.2619639 47.8021217,37.6512578 C47.0525296,37.2175319 45.9791934,36.8211961 44.5671711,36.4647432 C45.8795799,36.0185539 46.9354837,35.4552087 47.7323922,34.7697223 C48.5317911,34.0867286 49.1444146,33.2990425 49.5702626,32.4091565 C49.9936202,31.5167779 50.2052991,30.5745457 50.2052991,29.5824599 C50.2052991,28.2164725 49.8043544,26.9601629 49.0074459,25.8160238 C48.200576,24.6743774 47.0525296,23.7944622 45.5583261,23.1862488 C44.9755867,22.9494444 44.2832724,22.7699716 43.538661,22.6253963 L43.538661,17.3135 L38.4459173,17.3135 L38.4459173,22.2664507 L35.1736116,22.2664507 L35.1736116,17.3135 L30.080868,17.3135 L30.080868,22.2664507 L22.3135,22.2664507 L22.3135,26.4292226 L23.5013918,26.4292226 C24.2908293,26.4292226 24.8262523,26.5040029 25.1076606,26.6460855 C25.3890689,26.7881682 25.5858057,26.9850897 25.7003613,27.2268794 C25.8174073,27.4711619 25.8746851,28.0419851 25.8746851,28.931871 L25.8746851,45.7175631 C25.8746851,46.599971 25.8198976,47.1608235 25.7003613,47.4125839 C25.5858057,47.6668371 25.3890689,47.8612659 25.1076606,47.9933779 C24.8262523,48.1304751 24.2933197,48.2002701 23.5013918,48.2002701 L22.3135,48.2002701 L22.3135,52.363042 L30.080868,52.363042 L30.080868,57.3135 L35.1736116,57.3135 L35.1736116,52.363042 L38.0698761,52.363042 C38.2043544,52.363042 38.3263811,52.3605493 38.4484077,52.3605493 L38.4484077,57.3135 L43.5411514,57.3135 L43.5411514,51.9343014 C44.3953377,51.7697847 45.1499105,51.5628924 45.784947,51.3011612 C47.5406361,50.6007188 48.897871,49.5787209 49.8666129,48.2326749 C50.8303742,46.8965996 51.3135,45.4234271 51.3135,43.8256206 Z" id="Shape-path" fill="#FDA510"></path>
                <path d="M41.6267029,38.8074655 C40.7284144,38.4790172 39.3567763,38.3135 37.5171675,38.3135 L33.3135,38.3135 L33.3135,45.0738448 C33.3296369,46.0307414 33.3672897,46.5893621 33.4291479,46.7522931 C33.507143,46.9566034 33.6335489,47.1066034 33.8137445,47.1867759 C33.9912506,47.2643621 34.4753582,47.3135 35.2633778,47.3135 L37.6301259,47.3135 C39.007143,47.3135 40.1501748,47.1867759 41.0511528,46.9359138 C41.9601993,46.6928103 42.7320819,46.1807414 43.3614218,45.4022931 C43.9907616,44.6238448 44.3135,43.6953966 44.3135,42.6040172 C44.3135,41.6807414 44.0875831,40.8971207 43.6411284,40.250569 C43.1973631,39.6221207 42.5249914,39.1359138 41.6267029,38.8074655 Z" id="Shape-path" fill="#FFFFFF"></path>
                <path d="M40.7240754,33.8972581 C41.587217,33.6237277 42.2300371,33.2074857 42.6654959,32.6580464 C43.0983626,32.10385 43.3135,31.4592696 43.3135,30.7314409 C43.3135,29.9774484 43.1087307,29.332868 42.6991921,28.7976998 C42.2870614,28.2625316 41.6883056,27.8819676 40.9158847,27.6560076 C40.1356877,27.4276692 38.7437748,27.3135 36.74533,27.3135 L33.3135,27.3135 L33.3135,34.3135 L36.74533,34.3135 C38.5390054,34.3111215 39.8635259,34.173167 40.7240754,33.8972581 Z" id="Shape-path" fill="#FFFFFF"></path>
            </g>
        </g>
    </g>
</svg>