<?xml version="1.0" encoding="UTF-8"?>
<svg width="162px" height="36px" viewBox="0 0 162 36" version="1.1" xmlns="http://www.w3.org/2000/svg" xmlns:xlink="http://www.w3.org/1999/xlink">
    <!-- Generator: Sketch 63.1 (92452) - https://sketch.com -->
    <title>Group 22</title>
    <desc>Created with Sketch.</desc>
    <g id="v2" stroke="none" stroke-width="1" fill="none" fill-rule="evenodd">
        <g id="11" transform="translate(-140.000000, -23.000000)">
            <g id="Group-22" transform="translate(140.000000, 23.000000)">
                <g id="Group-20">
                    <g id="Group-23" transform="translate(91.000000, 0.000000)" fill="#4D4D4D">
                        <path d="M26.78706,21.00384 C26.44758,21.00384 26.05068,21.26754 25.53948,21.83238 C24.0021,23.50296 22.15026,24.89688 20.03796,25.974 C17.26344,27.3492 14.39568,28.04634 11.51442,28.04634 C9.0144,28.04634 6.89616,27.38646 5.22072,26.08668 C3.56256,24.77394 2.72178,22.8915 2.72178,20.49138 C2.72178,17.41158 4.0851,14.157 6.77358,10.818 C9.50454,7.43346 12.59262,4.90896 15.95412,3.31326 C18.67338,1.99224 21.4146,1.32246 24.10182,1.32246 C25.93908,1.32246 27.4122,1.69452 28.4886,2.43378 C29.7594,3.23928 30.37716,4.44438 30.37716,6.11802 C30.37716,7.79634 29.76642,9.30006 28.5624,10.58652 C26.19342,13.09914 23.64804,14.37318 20.997,14.37318 C19.80198,14.37318 18.79632,14.08536 18.0126,13.52142 C17.23788,12.9384 16.86132,12.25458 16.86132,11.4309 C16.86132,10.26918 17.60634,9.08838 19.07568,7.9209 C19.611,7.7139 19.88244,7.4124 19.88244,7.02414 C19.88244,6.82362 19.74582,6.58944 19.36062,6.58944 C19.12842,6.58944 18.83772,6.7239 18.4428,7.01442 C16.45038,8.51652 15.44022,10.05786 15.44022,11.5956 C15.44022,12.83904 16.05924,13.88448 17.28396,14.70528 C18.4698,15.4719 19.94472,15.86052 21.6684,15.86052 C25.2882,15.86052 28.44954,14.26176 31.06584,11.1078 C32.13648,9.80118 32.67918,8.2332 32.67918,6.4476 C32.67918,3.50028 31.07628,1.51506 27.918,0.5481 C26.77752,0.18432 25.42302,0 23.89194,0 C21.0159,0 17.9316,0.68598 14.72598,2.0385 C11.51748,3.36456 8.70606,5.25582 6.36966,7.66008 C3.13218,11.00322 1.10412,14.49756 0.34164,18.0459 C0.11484,19.1025 0,20.10546 0,21.0267 C0,23.13756 0.59778,24.98076 1.77516,26.50266 C3.52692,28.8144 6.2109,29.98656 9.75222,29.98656 C13.27608,29.98656 16.81902,29.07576 20.2806,27.28008 C23.09112,25.84566 25.27488,24.33132 26.76636,22.78458 C27.12636,22.43106 27.3087,22.07502 27.3087,21.7269 C27.3087,21.0744 26.94384,21.00384 26.78706,21.00384" id="Fill-1"></path>
                        <path d="M42.633036,15.091344 L38.307276,20.940264 C35.576676,24.343704 33.417036,26.069544 31.888476,26.069544 C31.655376,26.069544 31.109436,26.069544 31.109436,24.856884 C31.109436,23.241384 32.505696,21.146724 35.260416,18.630504 C38.020536,16.081884 40.245876,14.789664 41.874336,14.789664 C42.213636,14.789664 42.458976,14.886324 42.633036,15.091344 M38.079936,24.033204 C38.079936,25.495884 38.759616,26.495244 40.102596,27.004644 C40.354956,27.097884 40.626576,27.144864 40.909356,27.144864 C42.890796,27.144864 45.637056,24.806484 49.305636,19.996344 C49.601016,19.609704 49.738716,19.308924 49.738716,19.049904 C49.738716,18.493704 49.403376,18.450504 49.300776,18.450504 C49.163436,18.450504 48.963996,18.497304 48.798036,18.714204 C44.079336,24.487164 41.972076,25.698744 41.035176,25.698744 C40.899276,25.698744 40.538196,25.698744 40.375836,24.963444 L40.367556,24.933924 C40.349196,24.880284 40.340196,24.828084 40.340196,24.774444 C40.340196,23.846364 41.199156,22.138524 42.894036,19.697004 C45.542916,15.838344 45.542916,15.691284 45.542916,15.549264 C45.542916,15.322824 45.385416,15.082704 45.031896,14.770224 C44.702496,14.479524 44.346096,14.332104 43.972056,14.332104 L43.511256,14.423004 C43.454736,14.257764 43.385076,14.065704 43.301376,13.846644 L43.291836,13.824684 C42.936516,13.095684 42.233616,12.725784 41.203116,12.725784 C38.763396,12.725784 36.059976,14.165064 33.168636,17.002944 C31.731876,18.399564 30.637296,19.720584 29.915496,20.929464 C29.180196,22.160664 28.807236,23.315724 28.807236,24.362604 C28.807236,25.355664 29.225916,26.163504 30.056076,26.767224 C30.770496,27.263844 31.528116,27.515664 32.308056,27.515664 C33.137856,27.515664 34.375896,26.793504 36.102456,25.299684 L38.114136,23.388804 C38.091456,23.603904 38.079936,23.819184 38.079936,24.033204" id="Fill-3"></path>
                        <path d="M62.70795,13.819572 C62.70795,13.740912 62.68113,13.477572 62.33445,13.392432 L62.29179,13.382172 L62.24805,13.385592 C61.25265,13.467132 59.21325,13.508352 56.18637,13.508352 L56.13093,13.508352 C57.17259,11.540232 57.80421,10.377612 58.01031,10.048932 C59.07141,8.330292 60.20811,7.458912 61.38909,7.458912 C61.87671,7.458912 62.21169,7.630092 62.41995,7.992972 C62.61201,8.294472 62.82981,8.447292 63.06723,8.447292 C63.53505,8.447292 64.09251,8.179092 64.09251,6.900552 C64.09251,6.469992 63.95229,6.114132 63.66969,5.837112 C62.72739,4.969872 61.77663,4.530312 60.84369,4.530312 C58.43331,4.530312 55.90593,7.466472 53.11971,13.504752 L49.34709,13.425912 C49.09293,13.425912 48.80979,13.535892 48.47013,13.769532 C48.15369,14.011092 47.98629,14.327532 47.98629,14.684472 C47.98629,15.487092 49.24305,15.877152 52.04709,15.936732 L49.94019,20.915712 C48.02589,25.164252 46.49481,28.143612 45.38961,29.770992 C43.49439,32.561892 41.38155,33.976872 39.10959,33.976872 C38.76039,33.976872 38.42433,33.813612 38.08197,33.477552 C37.73115,33.133392 37.47447,32.626692 37.31895,31.971672 C37.25073,31.530852 37.01889,31.464612 36.88587,31.464612 C36.57951,31.464612 36.36441,31.699332 36.24651,32.162292 L36.23697,32.199552 L36.23841,32.238072 C36.26829,33.124572 36.61749,33.931692 37.26819,34.628472 C37.90647,35.374392 38.68137,35.752392 39.57111,35.752392 C41.97411,35.752392 44.44785,33.996132 46.92303,30.533472 C47.73717,29.403612 49.42287,26.498052 51.93747,21.890592 C53.12997,19.549872 54.16857,17.484552 55.02555,15.749352 C56.18979,15.538032 57.69495,15.283512 59.51025,14.990652 C62.47863,14.416092 62.70795,14.142852 62.70795,13.819572" id="Fill-5"></path>
                        <path d="M66.665142,15.713964 C66.665142,15.788484 66.643722,15.879024 66.595662,15.997824 C66.170682,17.249364 65.078802,18.435024 63.352062,19.520964 C61.641342,20.586924 60.263622,21.127464 59.257062,21.127464 C59.222862,21.127464 59.189202,21.126384 59.156082,21.124404 C60.099642,19.709244 61.388982,18.335484 62.993862,17.035344 C64.253142,16.009704 65.212182,15.489684 65.844162,15.489684 C66.342942,15.489684 66.665142,15.577704 66.665142,15.713964 M69.914142,18.903564 C69.651342,18.903564 69.383142,19.094184 69.073722,19.499544 C67.888962,20.986884 66.435642,22.413204 64.748502,23.743404 C62.598942,25.532784 60.836022,26.440164 59.508702,26.440164 C58.290282,26.440164 57.722742,25.845624 57.722742,24.568704 C57.722742,23.862024 57.889962,23.178564 58.220082,22.534164 C58.358322,22.560264 58.508622,22.573404 58.669542,22.573404 C60.194682,22.573404 62.175222,21.853944 64.554642,20.435724 C67.009482,18.990144 68.254002,17.429364 68.254002,15.796404 C68.254002,15.220404 68.010282,14.735304 67.529322,14.354604 C67.089042,13.956984 66.508182,13.755564 65.802402,13.755564 C63.778122,13.755564 61.482582,15.057684 58.979682,17.625924 C56.478762,20.192544 55.210662,22.500864 55.210662,24.486264 C55.210662,26.098164 56.180862,27.183384 58.082022,27.708084 C58.359582,27.798984 58.670262,27.845064 59.005062,27.845064 C60.537942,27.845064 62.411562,27.066204 64.574082,25.530084 C66.711222,24.012324 68.565582,22.247964 70.089102,20.281464 C70.354422,19.923444 70.477902,19.650024 70.477902,19.420524 C70.477902,19.106424 70.256502,18.903564 69.914142,18.903564" id="Fill-7"></path>
                    </g>
                    <g id="Group-9" opacity="0.6" transform="translate(150.600000, 12.125000)"></g>
                    <polygon id="Fill-10" fill="#222222" points="19.54268 22.03398 19.42688 22.03398 15.52148 6.91778 11.83268 6.91778 7.92708 22.03398 7.81128 22.03398 4.52768 6.91778 8e-05 6.91778 5.52588 27.79118 9.64848 27.79118 13.61188 13.52838 13.74208 13.52838 17.70548 27.79118 21.82828 27.79118 27.36848 6.91778 22.84088 6.91778"></polygon>
                    <path d="M37.84024,24.53652 L34.07924,24.53652 L34.07924,18.47552 L37.73904,18.47552 C40.31384,18.47552 41.71704,19.51692 41.71704,21.46992 C41.71704,23.46592 40.35724,24.53652 37.84024,24.53652 L37.84024,24.53652 Z M34.07924,10.17252 L37.66664,10.17252 C39.70624,10.17252 40.87804,11.12712 40.87804,12.80512 C40.87804,14.56992 39.54724,15.59692 37.21824,15.59692 L34.07924,15.59692 L34.07924,10.17252 Z M41.25404,16.76872 L41.25404,16.65292 C43.46724,16.32012 45.17424,14.41072 45.17424,12.12532 C45.17424,8.92832 42.71504,6.91772 38.79504,6.91772 L29.71084,6.91772 L29.71084,27.79112 L38.95404,27.79112 C43.40944,27.79112 46.17224,25.49112 46.17224,21.81692 C46.17224,19.05412 44.08924,16.98572 41.25404,16.76872 L41.25404,16.76872 Z" id="Fill-12" fill="#222222"></path>
                    <polygon id="Fill-14" fill="#222222" points="47.61816 10.51962 53.65016 10.51962 53.65016 27.79122 58.01876 27.79122 58.01876 10.51962 64.06516 10.51962 64.06516 6.91782 47.61816 6.91782"></polygon>
                    <path d="M74.5665,24.53652 C71.2249,24.53652 69.1275,21.78812 69.1275,17.33272 C69.1275,12.93532 71.2539,10.17252 74.5521,10.17252 C77.0979,10.17252 79.0651,11.85032 79.4703,14.41072 L83.7231,14.41072 C83.3903,9.73852 79.5715,6.55612 74.5521,6.55612 C68.5055,6.55612 64.6721,10.62092 64.6721,17.34732 C64.6721,24.08812 68.4765,28.13832 74.5521,28.13832 C79.6727,28.13832 83.2457,25.20192 83.7375,20.54412 L79.4847,20.54412 C79.0217,23.01752 77.1557,24.53652 74.5665,24.53652" id="Fill-16" fill="#222222"></path>
                    <path d="M86.58018,23.71406 C85.50578,23.71406 84.65838,24.56146 84.65838,25.63586 C84.65838,26.69826 85.50578,27.55786 86.58018,27.55786 C87.64258,27.55786 88.50198,26.69826 88.50198,25.63586 C88.50198,24.56146 87.64258,23.71406 86.58018,23.71406" id="Fill-18" fill="#222222"></path>
                </g>
            </g>
        </g>
    </g>
</svg>