<svg width="127" height="35" viewBox="0 0 127 35" fill="none" xmlns="http://www.w3.org/2000/svg">
<path d="M5.32003 7.73998L7.86003 6.28998L8.20003 6.86998L17.57 1.46998L16.89 1.07998L16.2 0.669981L15.86 0.47998L0.590027 9.29998V9.68998L4.98003 7.15998L5.32003 7.73998Z" fill="#001D3D"/>
<path d="M5.32003 13.29L12.66 9.05L13 9.65L22.37 4.25L21.69 3.84L21 3.45L20.66 3.25L0.590027 14.84V15.23L4.98003 12.7L5.32003 13.29Z" fill="#001D3D"/>
<path d="M5.32003 16.0699L15.06 10.4399L15.4 11.0399L24.77 5.61989L24.09 5.23989L23.4 4.83989L23.06 4.63989L0.590027 17.6099V18.0099L4.98003 15.4699L5.32003 16.0699Z" fill="#001D3D"/>
<path d="M5.32003 18.84L17.53 11.79L17.88 12.38L27.17 7.02002L26.49 6.61002L25.8 6.22002L25.46 6.02002L0.590027 20.38V20.78L4.98003 18.25L5.32003 18.84Z" fill="#001D3D"/>
<path d="M5.32003 21.6099L19.93 13.1699L20.28 13.7699L29.58 8.39991L28.89 8.00991L28.2 7.60991L27.86 7.40991L0.590027 23.1499V23.5499L4.98003 21.0199L5.32003 21.6099Z" fill="#001D3D"/>
<path d="M30.6 9.00004L30.26 8.79004L0.590027 25.93V26.32L4.98003 23.79L5.32003 24.38L19.93 15.95L20.28 16.54L31.12 10.29V9.49004V9.30004L30.6 9.00004Z" fill="#001D3D"/>
<path d="M2.47001 28.0101L4.93001 26.5901L5.27001 27.1801L19.86 18.7601L20.21 19.3601L31.12 13.0501V12.2601V11.4701V11.0701L2.14001 27.8101L2.47001 28.0101Z" fill="#001D3D"/>
<path d="M19.86 21.5401L20.21 22.1301L31.12 15.8301V15.0401V14.2401V13.8501L4.54004 29.1901L4.88004 29.3901L7.38004 27.9501L7.72004 28.5501L19.86 21.5401Z" fill="#001D3D"/>
<path d="M7.28005 30.7799L9.78005 29.3299L10.1201 29.9299L19.8601 24.2999L20.2101 24.8999L31.1201 18.5999V17.7999V17.0199V16.6199L6.93005 30.5799L7.28005 30.7799Z" fill="#001D3D"/>
<path d="M9.68003 32.1699L12.18 30.7299L12.52 31.3199L19.86 27.0799L20.21 27.6699L31.12 21.3699V20.5799V19.7899V19.3899L9.34003 31.9699L9.68003 32.1699Z" fill="#001D3D"/>
<path d="M11.7401 33.3499L12.0801 33.5499L14.5901 32.1099L14.9201 32.6999L19.8601 29.8499L20.2101 30.4499L31.1201 24.1399V23.3499V22.5599V22.1599L11.7401 33.3499Z" fill="#001D3D"/>
<path d="M14.48 34.9399L16.98 33.4899L17.32 34.0899L19.86 32.6199L20.21 33.2099L31.12 26.9199V26.1199V25.3299V24.9399L14.14 34.7399L14.48 34.9399Z" fill="#001D3D"/>
<path d="M19.97 2.85987L19.29 2.45987L18.6 2.06987L18.26 1.86987L0.590027 12.0599V12.4599L4.98003 9.92987L5.32003 10.5199L10.26 7.66987L10.61 8.26987L19.97 2.85987Z" fill="#001D3D"/>
<g opacity="0.6">
<path opacity="0.6" d="M62.83 7.13999C62.83 8.49999 61.89 8.79999 60.55 8.79999H59.61V11H58.84V5.48999H60.55C61.89 5.48999 62.83 5.78999 62.83 7.13999ZM59.61 8.13999H60.61C61.41 8.13999 62.03 8.05999 62.03 7.13999C62.03 6.21999 61.41 6.13999 60.61 6.13999H59.61V8.13999Z" fill="#001D3D"/>
<path opacity="0.6" d="M65.0001 11.07C64.7244 11.0797 64.4499 11.0306 64.1947 10.9258C63.9396 10.8211 63.7097 10.6631 63.5204 10.4625C63.3312 10.2619 63.1869 10.0232 63.0971 9.76237C63.0074 9.50156 62.9743 9.22462 63.0001 8.95001C63.0033 8.68737 63.0583 8.42794 63.1619 8.18655C63.2654 7.94515 63.4155 7.72652 63.6035 7.54312C63.7916 7.35972 64.0139 7.21516 64.2578 7.11768C64.5017 7.02021 64.7624 6.97173 65.0251 6.97501C65.2877 6.97829 65.5471 7.03328 65.7885 7.13682C66.0299 7.24036 66.2486 7.39044 66.432 7.57847C66.6153 7.76651 66.7599 7.98883 66.8574 8.23274C66.9549 8.47665 67.0033 8.73737 67.0001 9.00001C67.0184 9.27062 66.9798 9.54207 66.8867 9.79684C66.7936 10.0516 66.6481 10.284 66.4597 10.4791C66.2712 10.6741 66.0439 10.8275 65.7925 10.9293C65.5411 11.0311 65.2711 11.079 65.0001 11.07ZM66.2601 9.00001C66.2601 7.92001 65.6601 7.49001 65.0401 7.49001C64.4201 7.49001 63.8201 7.89001 63.8201 9.00001C63.8201 10.11 64.4201 10.51 65.0401 10.51C65.6601 10.51 66.2601 10 66.2601 9.00001Z" fill="#001D3D"/>
<path opacity="0.6" d="M70.31 6.8999L71.12 9.8999L71.89 6.8999H72.64L71.46 10.9999H70.84L69.94 7.7299L69.07 10.9999H68.44L67.27 6.8999H68L68.78 9.8999L69.59 6.8999H70.31Z" fill="#001D3D"/>
<path opacity="0.6" d="M74.9 10.46C75.1305 10.4781 75.3609 10.4231 75.5583 10.3028C75.7558 10.1825 75.9103 10.0031 76 9.78997H76.71C76.5972 10.1783 76.3555 10.5167 76.0247 10.7494C75.6938 10.982 75.2937 11.0951 74.89 11.07C74.6161 11.0705 74.3449 11.0148 74.0934 10.9063C73.8418 10.7978 73.6153 10.6387 73.4278 10.439C73.2403 10.2393 73.0958 10.0032 73.0033 9.74532C72.9107 9.48746 72.8722 9.21334 72.89 8.93997C72.8317 8.64092 72.8425 8.3325 72.9215 8.03825C73.0006 7.74401 73.1458 7.47171 73.3461 7.24214C73.5464 7.01258 73.7966 6.83182 74.0774 6.71366C74.3582 6.5955 74.6624 6.54306 74.9665 6.56035C75.2707 6.57765 75.567 6.66421 75.8326 6.81343C76.0982 6.96266 76.3262 7.1706 76.4993 7.42139C76.6723 7.67218 76.7857 7.95918 76.8309 8.26049C76.8761 8.5618 76.8519 8.86946 76.76 9.15997H73.64C73.6332 9.32912 73.6609 9.49789 73.7213 9.65604C73.7817 9.81419 73.8736 9.95842 73.9914 10.08C74.1092 10.2015 74.2505 10.2979 74.4067 10.3632C74.5629 10.4285 74.7307 10.4615 74.9 10.46V10.46ZM76.05 8.56997C76.0448 8.2614 75.9178 7.96742 75.6968 7.75203C75.4758 7.53663 75.1786 7.41729 74.87 7.41997C74.7129 7.4089 74.5551 7.43053 74.4068 7.48348C74.2584 7.53643 74.1226 7.61955 74.008 7.7276C73.8934 7.83566 73.8024 7.9663 73.7408 8.11128C73.6791 8.25627 73.6482 8.41245 73.65 8.56997H76.05Z" fill="#001D3D"/>
<path opacity="0.6" d="M79.21 7.58999C78.58 7.58999 78.26 7.94999 78.26 8.83999V11H77.57V6.89999H78.25V7.60999C78.3456 7.38854 78.5052 7.20073 78.7084 7.07065C78.9115 6.94058 79.1489 6.87418 79.39 6.87999H79.6V7.60999L79.21 7.58999Z" fill="#001D3D"/>
<path opacity="0.6" d="M81.9 10.46C82.1305 10.4781 82.3609 10.4231 82.5583 10.3028C82.7558 10.1825 82.9103 10.0031 83 9.78997H83.71C83.5972 10.1783 83.3555 10.5167 83.0247 10.7494C82.6938 10.982 82.2937 11.0951 81.89 11.07C81.6161 11.0705 81.3449 11.0148 81.0934 10.9063C80.8418 10.7978 80.6153 10.6387 80.4278 10.439C80.2403 10.2393 80.0958 10.0032 80.0033 9.74532C79.9107 9.48746 79.8722 9.21334 79.89 8.93997C79.8317 8.64092 79.8425 8.3325 79.9215 8.03825C80.0006 7.74401 80.1458 7.47171 80.3461 7.24214C80.5464 7.01258 80.7966 6.83182 81.0774 6.71366C81.3582 6.5955 81.6624 6.54306 81.9665 6.56035C82.2707 6.57765 82.567 6.66421 82.8326 6.81343C83.0982 6.96266 83.3262 7.1706 83.4993 7.42139C83.6723 7.67218 83.7857 7.95918 83.8309 8.26049C83.8761 8.5618 83.8519 8.86946 83.76 9.15997H80.64C80.6332 9.32912 80.6609 9.49789 80.7213 9.65604C80.7817 9.81419 80.8736 9.95842 80.9914 10.08C81.1092 10.2015 81.2505 10.2979 81.4067 10.3632C81.5629 10.4285 81.7307 10.4615 81.9 10.46V10.46ZM83.05 8.56997C83.0448 8.2614 82.9178 7.96742 82.6968 7.75203C82.4758 7.53663 82.1786 7.41729 81.87 7.41997C81.7129 7.4089 81.5551 7.43053 81.4068 7.48348C81.2584 7.53643 81.1226 7.61955 81.008 7.7276C80.8934 7.83566 80.8024 7.9663 80.7408 8.11128C80.6791 8.25627 80.6482 8.41245 80.65 8.56997H83.05Z" fill="#001D3D"/>
<path opacity="0.6" d="M88.09 5.48999V11H87.4V10.39C87.2664 10.6205 87.0712 10.8091 86.8362 10.9345C86.6012 11.0599 86.3358 11.1173 86.07 11.1C85.8154 11.0828 85.567 11.014 85.3399 10.8977C85.1128 10.7815 84.9117 10.6202 84.7489 10.4237C84.5861 10.2273 84.4651 9.99972 84.393 9.75495C84.321 9.51018 84.2996 9.25331 84.33 8.99999C84.2966 8.74513 84.3159 8.48613 84.3865 8.239C84.4572 7.99187 84.5778 7.76185 84.7409 7.56317C84.904 7.36448 85.106 7.20134 85.3346 7.08384C85.5632 6.96633 85.8135 6.89696 86.07 6.87999C86.3358 6.86272 86.6012 6.92003 86.8362 7.04548C87.0712 7.17093 87.2664 7.35951 87.4 7.58999V5.58999L88.09 5.48999ZM85.09 8.94999C85.09 9.94999 85.55 10.48 86.26 10.48C86.97 10.48 87.43 9.99999 87.43 8.99999C87.43 7.99999 86.86 7.46999 86.25 7.46999C85.64 7.46999 85.08 7.99999 85.08 8.99999L85.09 8.94999Z" fill="#001D3D"/>
<path opacity="0.6" d="M91.66 7.53999C91.7936 7.30951 91.9888 7.12092 92.2238 6.99548C92.4588 6.87003 92.7242 6.81272 92.99 6.82999C93.2513 6.84628 93.5064 6.91698 93.7389 7.03757C93.9713 7.15816 94.176 7.32598 94.3398 7.53028C94.5036 7.73457 94.6229 7.97083 94.6901 8.22392C94.7573 8.47701 94.7709 8.74135 94.73 8.99999C94.7561 9.25019 94.7318 9.5031 94.6584 9.74371C94.585 9.98433 94.464 10.2078 94.3027 10.4008C94.1414 10.5938 93.943 10.7525 93.7192 10.8675C93.4954 10.9824 93.2509 11.0513 93 11.07C92.7342 11.0873 92.4688 11.0299 92.2338 10.9045C91.9988 10.7791 91.8036 10.5905 91.67 10.36V11H91V5.48999H91.69L91.66 7.53999ZM94 8.99999C94 7.99999 93.54 7.46999 92.84 7.46999C92.14 7.46999 91.65 7.92999 91.65 8.99999C91.65 10.07 92.22 10.53 92.84 10.53C93.46 10.53 94 9.91999 94 8.99999Z" fill="#001D3D"/>
<path opacity="0.6" d="M97 11.1399C96.7 12.0299 96.49 12.2899 95.58 12.2899H95.23V11.7199H95.51C95.96 11.7199 96.18 11.7199 96.36 11.0499V10.9699L94.89 6.8999H95.66L96.66 10.0399L97.66 6.8999H98.38L97 11.1399Z" fill="#001D3D"/>
</g>
<path d="M64.08 24.0001H61.45V30.4401H59V15.1001H63.85C67.97 15.1001 70.45 15.9701 70.45 19.5201C70.5121 20.4356 70.2434 21.3431 69.6928 22.0772C69.1422 22.8113 68.3463 23.3233 67.45 23.5201L70.97 30.3801H68.27L65.08 24.0001C64.76 24.0001 64.42 24.0001 64.08 24.0001ZM61.45 22.0001H64.21C66.47 22.0001 68.01 21.6601 68.01 19.5501C68.01 17.4401 66.34 17.0801 64.17 17.0801H61.45V22.0001Z" fill="#001D3D"/>
<path d="M83 27.0801C82.6859 28.1733 82.0085 29.1268 81.0794 29.7831C80.1504 30.4394 79.0254 30.7593 77.89 30.6901C74.21 30.6901 72.23 28.0101 72.23 24.6901C72.23 21.1601 74.59 18.8201 77.82 18.8201C81.33 18.8201 83.38 21.6901 83.15 25.3901H74.46C74.67 27.4801 76 28.7901 77.77 28.7901C78.3894 28.8611 79.0153 28.7314 79.5554 28.4199C80.0955 28.1085 80.5213 27.6318 80.77 27.0601L83 27.0801ZM80.87 23.6801C80.8769 23.276 80.802 22.8746 80.6499 22.5002C80.4978 22.1257 80.2716 21.7859 79.9848 21.501C79.6981 21.2161 79.3568 20.9922 78.9814 20.8425C78.6059 20.6928 78.2041 20.6206 77.8 20.6301C76.09 20.6301 74.8 21.5201 74.53 23.6801H80.87Z" fill="#001D3D"/>
<path d="M91 18.84C93.74 18.84 94.8 20.62 94.8 23.25V30.41H92.6V23.85C92.6 22.2 92.33 20.68 90.26 20.68C88.36 20.68 87.43 22.05 87.43 24.31V30.41H85.23V19.05H87.43V20.7C87.793 20.0884 88.3194 19.5902 88.9502 19.2616C89.5809 18.933 90.2908 18.787 91 18.84V18.84Z" fill="#001D3D"/>
<path d="M103 27.7301L107 15.1001H109.54L104.32 30.4101H101.59L96.23 15.1001H98.87L103 27.7301Z" fill="#001D3D"/>
<path d="M113.64 17.5301V30.4101H111.27V15.1001H115.14L119 27.6101L122.82 15.1001H126.69V30.4101H124.33V17.5301L120.25 30.4101H117.76L113.64 17.5301Z" fill="#001D3D"/>
<path d="M45.83 9.16992V26.6799" stroke="#001D3D" stroke-width="0.5" stroke-miterlimit="10"/>
</svg>
