<?xml version="1.0" encoding="UTF-8"?>
<svg width="40px" height="40px" viewBox="0 0 40 40" version="1.1" xmlns="http://www.w3.org/2000/svg" xmlns:xlink="http://www.w3.org/1999/xlink">
    <!-- Generator: Sketch 55.2 (78181) - https://sketchapp.com -->
    <title>bitcoin-coin</title>
    <desc>Created with Sketch.</desc>
    <g id="Page-1" stroke="none" stroke-width="1" fill="none" fill-rule="evenodd">
        <g id="bitcoin-coin" fill="#FFFFFF" fill-rule="nonzero">
            <path d="M3.837,20.516 C3.561,20.516 3.337,20.309 3.337,20.034 L3.337,20 C3.337,18.253 3.606,16.532 4.137,14.885 C4.222,14.622 4.504,14.48 4.766,14.562 C5.029,14.647 5.173,14.929 5.089,15.191 C4.59,16.739 4.337,18.357 4.337,20 C4.337,20.275 4.114,20.516 3.837,20.516 Z M24.854,34.896 C23.296,35.402 21.669,35.661 20.018,35.663 C19.742,35.663 19.518,35.889 19.518,36.163 C19.518,36.437 19.742,36.663 20.018,36.663 L20.018,36.663 C21.774,36.661 23.507,36.387 25.164,35.848 C25.427,35.764 25.569,35.481 25.483,35.218 C25.398,34.956 25.115,34.811 24.854,34.896 Z M5.108,24.868 C5.023,24.605 4.744,24.462 4.478,24.548 C4.216,24.633 4.072,24.916 4.158,25.178 C4.7,26.838 5.499,28.399 6.534,29.817 C6.632,29.952 6.784,30.022 6.938,30.022 C7.04,30.022 7.144,29.992 7.232,29.925 C7.455,29.762 7.504,29.449 7.341,29.227 C6.37,27.895 5.618,26.428 5.108,24.868 Z M24.794,5.084 C26.357,5.586 27.827,6.33 29.164,7.296 C29.253,7.36 29.355,7.391 29.456,7.391 C29.611,7.391 29.764,7.319 29.861,7.184 C30.023,6.96 29.972,6.647 29.75,6.486 C28.328,5.458 26.764,4.666 25.1,4.132 C24.837,4.049 24.557,4.193 24.471,4.455 C24.387,4.718 24.531,5 24.794,5.084 Z M6.9,11.03 C7.055,11.03 7.208,10.958 7.305,10.823 C8.27,9.49 9.432,8.322 10.761,7.35 C10.984,7.187 11.032,6.874 10.869,6.651 C10.707,6.428 10.394,6.38 10.17,6.543 C8.757,7.576 7.521,8.819 6.495,10.236 C6.333,10.46 6.383,10.772 6.607,10.934 C6.696,11 6.799,11.03 6.9,11.03 Z M14.962,5.138 C15.013,5.138 15.066,5.13 15.118,5.113 C16.674,4.603 18.301,4.342 19.953,4.338 C20.228,4.337 20.453,4.113 20.4520033,3.837 C20.451,3.562 20.226,3.338 19.952,3.338 L19.951,3.338 C18.194,3.343 16.4629948,3.621 14.807,4.163 C14.545,4.249 14.402,4.531 14.488,4.794 C14.556,5.004 14.751,5.138 14.962,5.138 Z M15.176,34.906 C13.614,34.4 12.145,33.654 10.81,32.685 C10.587,32.521 10.273,32.573 10.112,32.794 C9.95,33.02 10,33.332 10.223,33.494 C11.643,34.523 13.206,35.318 14.868,35.855 C14.919,35.873 14.971,35.878 15.022,35.878 C15.233,35.878 15.429,35.743 15.498,35.532 C15.583,35.273 15.439,34.991 15.176,34.906 Z M32.676,29.202 C31.708,30.532 30.543,31.698 29.213,32.667 C28.99,32.83 28.942,33.143 29.104,33.366 C29.203,33.5 29.354,33.572 29.508,33.572 C29.61,33.572 29.713,33.541 29.802,33.476 C31.217,32.445 32.455,31.205 33.485,29.788 C33.649,29.563 33.598,29.252 33.377,29.09 C33.15,28.928 32.838,28.979 32.676,29.202 Z M36.163,19.468 C35.887,19.468 35.663,19.723 35.663,20 C35.663,21.652 35.407,23.281 34.9,24.839 C34.816,25.102 34.96,25.383 35.222,25.469 C35.273,25.487 35.325,25.493 35.374,25.493 C35.585,25.493 35.781,25.359 35.851,25.146 C36.39,23.49 36.663,21.756 36.663,20 L36.663,19.936 C36.663,19.66 36.439,19.468 36.163,19.468 Z M34.882,15.103 C34.951,15.313 35.147,15.447 35.358,15.447 C35.411,15.447 35.462,15.439 35.514,15.422 C35.776,15.336 35.918,15.053 35.832,14.791 C35.286,13.131 34.482,11.572 33.445,10.158 C33.281,9.935 32.967,9.887 32.747,10.051 C32.525,10.215 32.476,10.527 32.641,10.75 C33.615,12.078 34.369,13.543 34.882,15.103 Z M40,20 C40,31.027 31.027,40 20,40 C8.972,40 0,31.027 0,20 C0,8.972 8.972,0 20,0 C31.027,0 40,8.972 40,20 Z M38,20 C38,10.075 29.925,2 20,2 C10.075,2 2,10.075 2,20 C2,29.925 10.075,38 20,38 C29.925,38 38,29.925 38,20 Z M21.686,20.818 C21.352,20.691 20.842,20.627 20.158,20.627 L18.595,20.627 L18.595,23.241 C18.601,23.611 18.615,23.827 18.638,23.89 C18.667,23.969 18.714,24.027 18.781,24.058 C18.847,24.088 19.027,24.107 19.32,24.107 L20.2,24.107 C20.712,24.107 21.137,24.058 21.472,23.961 C21.81,23.867 22.097,23.669 22.331,23.368 C22.565,23.067 22.685,22.708 22.685,22.286 C22.685,21.929 22.601,21.626 22.435,21.376 C22.27,21.133 22.02,20.945 21.686,20.818 Z M34.436,20 C34.436,27.973 27.973,34.436 20,34.436 C12.028,34.436 5.565,27.973 5.565,20 C5.565,12.028 12.028,5.565 20,5.565 C27.973,5.565 34.436,12.028 34.436,20 Z M25.822,22.609 C25.822,22.073 25.695,21.588 25.441,21.152 C25.187,20.714 24.841,20.377 24.412,20.132 C24.111,19.958 23.68,19.799 23.113,19.656 C23.64,19.477 24.064,19.251 24.384,18.976 C24.705,18.702 24.951,18.386 25.122,18.029 C25.292,17.671 25.377,17.293 25.377,16.895 C25.377,16.347 25.216,15.843 24.896,15.384 C24.572,14.926 24.111,14.573 23.511,14.329 C23.277,14.234 22.999,14.162 22.7,14.104 L22.7,11.973 L20.655,11.973 L20.655,13.96 L19.341,13.96 L19.341,11.973 L17.296,11.973 L17.296,13.96 L14.177,13.96 L14.177,15.63 L14.654,15.63 C14.971,15.63 15.186,15.66 15.299,15.717 C15.412,15.774 15.491,15.853 15.537,15.95 C15.584,16.048 15.607,16.277 15.607,16.634 L15.607,23.368 C15.607,23.722 15.585,23.947 15.537,24.048 C15.491,24.15 15.412,24.228 15.299,24.281 C15.186,24.336 14.972,24.364 14.654,24.364 L14.177,24.364 L14.177,26.034 L17.296,26.034 L17.296,28.02 L19.341,28.02 L19.341,26.034 L20.504,26.034 C20.558,26.034 20.607,26.033 20.656,26.033 L20.656,28.02 L22.701,28.02 L22.701,25.862 C23.044,25.796 23.347,25.713 23.602,25.608 C24.307,25.327 24.852,24.917 25.241,24.377 C25.628,23.841 25.822,23.25 25.822,22.609 Z M21.454,18.679 C21.787,18.564 22.035,18.389 22.203,18.158 C22.37,17.925 22.453,17.654 22.453,17.348 C22.453,17.031 22.374,16.76 22.216,16.535 C22.057,16.31 21.826,16.15 21.528,16.055 C21.227,15.959 20.69,15.911 19.919,15.911 L18.595,15.911 L18.595,18.854 L19.919,18.854 C20.611,18.853 21.122,18.795 21.454,18.679 Z" id="Shape"></path>
        </g>
    </g>
</svg>