<?xml version="1.0" encoding="UTF-8"?>
<svg width="96px" height="96px" viewBox="0 0 96 96" version="1.1" xmlns="http://www.w3.org/2000/svg" xmlns:xlink="http://www.w3.org/1999/xlink">
    <!-- Generator: Sketch 55.2 (78181) - https://sketchapp.com -->
    <title>noun_growth_2500252</title>
    <desc>Created with Sketch.</desc>
    <g id="Page-1" stroke="none" stroke-width="1" fill="none" fill-rule="evenodd">
        <g id="noun_growth_2500252" fill="#000000" fill-rule="nonzero">
            <g id="Group">
                <path d="M19.9,65.2 L3.3,65.2 C2,65.2 0.9,66.3 0.9,67.6 L0.9,93.1 C0.9,94.4 2,95.5 3.3,95.5 L19.9,95.5 C21.2,95.5 22.3,94.4 22.3,93.1 L22.3,67.6 C22.3,66.3 21.2,65.2 19.9,65.2 Z" id="Path"></path>
                <path d="M50.8,45.8 L34.2,45.8 C32.9,45.8 31.8,46.9 31.8,48.2 L31.8,93.1 C31.8,94.4 32.9,95.5 34.2,95.5 L50.8,95.5 C52.1,95.5 53.2,94.4 53.2,93.1 L53.2,48.2 C53.2,46.9 52.1,45.8 50.8,45.8 Z" id="Path"></path>
                <path d="M94.6,27.5 L75.4,1.5 C74.4,0.2 72.5,0.2 71.5,1.5 L52.3,27.5 C51.1,29.1 52.3,31.4 54.2,31.4 L62.7,31.4 L62.7,93.1 C62.7,94.4 63.8,95.5 65.1,95.5 L81.7,95.5 C83,95.5 84.1,94.4 84.1,93.1 L84.1,31.3 L92.6,31.3 C94.7,31.3 95.8,29.1 94.6,27.5 Z" id="Path"></path>
            </g>
        </g>
    </g>
</svg>